<svg width="37" height="27" viewBox="0 0 37 27" fill="none" xmlns="http://www.w3.org/2000/svg">
<path fill-rule="evenodd" clip-rule="evenodd" d="M30.411 21.5V23.5H8.61644V21.5L12.4178 16L4.81507 1.25H0.760274L0 0H5.82877L7.60274 3H37L34.7192 18.25H13.4315L11.1507 21.5H30.411ZM14.4452 16L12.1644 11.5H18.2466L20.274 16H14.4452ZM8.86986 5L11.1507 9.5H17.4863L15.4589 5H8.86986ZM19.2603 9.5L17.2329 5H23.0616L25.089 9.5H19.2603ZM20.274 11.5L22.3014 16H27.8767L25.8493 11.5H20.274ZM30.1575 16L28.1301 11.5H32.9452L33.7055 13.5L33.1986 16H30.1575ZM25.089 5L27.1164 9.5H32.1849L30.411 5H25.089ZM34.2123 9.5L32.4384 5H35.226L34.4658 9.5H34.2123Z" fill="#797979"/>
<path d="M12.9247 23.5C12.9247 25.433 11.3362 27 9.37671 27C7.41724 27 5.82877 25.433 5.82877 23.5C5.82877 21.567 7.41724 20 9.37671 20C11.3362 20 12.9247 21.567 12.9247 23.5Z" fill="#797979"/>
<path d="M33.1986 23.5C33.1986 25.433 31.6102 27 29.6507 27C27.6912 27 26.1027 25.433 26.1027 23.5C26.1027 21.567 27.6912 20 29.6507 20C31.6102 20 33.1986 21.567 33.1986 23.5Z" fill="#797979"/>
</svg>
