<svg width="254" height="80" viewBox="0 0 254 80" fill="none" xmlns="http://www.w3.org/2000/svg">
<g filter="url(#filter0_d_1_50)">
<path d="M17.5215 63.798C17.5215 65.634 16.9095 66.99 15.6855 67.866C14.4735 68.742 12.8535 69.18 10.8255 69.18C8.79754 69.18 7.17154 68.742 5.94754 67.866C4.73554 66.99 4.12954 65.622 4.12954 63.762V61.638C4.12954 60.414 4.41754 59.4 4.99354 58.596C5.58154 57.78 6.37954 57.18 7.38754 56.796C8.39555 56.412 9.54155 56.22 10.8255 56.22C12.1095 56.22 13.2495 56.412 14.2455 56.796C15.2535 57.18 16.0515 57.774 16.6395 58.578C17.2275 59.382 17.5215 60.39 17.5215 61.602V63.798ZM8.98954 64.14C8.98954 64.632 9.15155 65.01 9.47555 65.274C9.81155 65.538 10.2615 65.67 10.8255 65.67C11.3895 65.67 11.8335 65.538 12.1575 65.274C12.4935 64.998 12.6615 64.614 12.6615 64.122V61.278C12.6615 60.786 12.4935 60.408 12.1575 60.144C11.8335 59.868 11.3895 59.73 10.8255 59.73C10.2615 59.73 9.81155 59.862 9.47555 60.126C9.15155 60.39 8.98954 60.768 8.98954 61.26V64.14ZM30.4858 63.798C30.4858 65.634 29.8738 66.99 28.6498 67.866C27.4378 68.742 25.8178 69.18 23.7898 69.18C21.7618 69.18 20.1358 68.742 18.9118 67.866C17.6998 66.99 17.0938 65.622 17.0938 63.762V61.638C17.0938 60.414 17.3818 59.4 17.9578 58.596C18.5458 57.78 19.3438 57.18 20.3518 56.796C21.3598 56.412 22.5058 56.22 23.7898 56.22C25.0738 56.22 26.2138 56.412 27.2098 56.796C28.2178 57.18 29.0158 57.774 29.6038 58.578C30.1918 59.382 30.4858 60.39 30.4858 61.602V63.798ZM21.9538 64.14C21.9538 64.632 22.1158 65.01 22.4398 65.274C22.7758 65.538 23.2258 65.67 23.7898 65.67C24.3538 65.67 24.7978 65.538 25.1218 65.274C25.4578 64.998 25.6258 64.614 25.6258 64.122V61.278C25.6258 60.786 25.4578 60.408 25.1218 60.144C24.7978 59.868 24.3538 59.73 23.7898 59.73C23.2258 59.73 22.7758 59.862 22.4398 60.126C22.1158 60.39 21.9538 60.768 21.9538 61.26V64.14ZM43.45 63.798C43.45 65.634 42.838 66.99 41.614 67.866C40.402 68.742 38.782 69.18 36.754 69.18C34.726 69.18 33.1 68.742 31.876 67.866C30.664 66.99 30.058 65.622 30.058 63.762V61.638C30.058 60.414 30.346 59.4 30.922 58.596C31.51 57.78 32.308 57.18 33.316 56.796C34.324 56.412 35.47 56.22 36.754 56.22C38.038 56.22 39.178 56.412 40.174 56.796C41.182 57.18 41.98 57.774 42.568 58.578C43.156 59.382 43.45 60.39 43.45 61.602V63.798ZM34.918 64.14C34.918 64.632 35.08 65.01 35.404 65.274C35.74 65.538 36.19 65.67 36.754 65.67C37.318 65.67 37.762 65.538 38.086 65.274C38.422 64.998 38.59 64.614 38.59 64.122V61.278C38.59 60.786 38.422 60.408 38.086 60.144C37.762 59.868 37.318 59.73 36.754 59.73C36.19 59.73 35.74 59.862 35.404 60.126C35.08 60.39 34.918 60.768 34.918 61.26V64.14ZM61.9084 60.954C61.8844 61.134 61.7884 61.296 61.6204 61.44C61.4644 61.584 61.2724 61.656 61.0444 61.656H57.7144C57.6064 61.656 57.5104 61.62 57.4264 61.548C57.3544 61.464 57.3184 61.368 57.3184 61.26C57.3184 61.212 57.3244 61.17 57.3364 61.134L59.0464 56.796C59.1064 56.652 59.2024 56.52 59.3344 56.4C59.4784 56.28 59.6584 56.22 59.8744 56.22H62.1784C62.2864 56.22 62.3764 56.262 62.4484 56.346C62.5324 56.418 62.5744 56.508 62.5744 56.616V56.652L61.9084 60.954ZM67.3984 60.954C67.3744 61.134 67.2784 61.296 67.1104 61.44C66.9544 61.584 66.7624 61.656 66.5344 61.656H63.2044C63.0964 61.656 63.0004 61.62 62.9164 61.548C62.8444 61.464 62.8084 61.368 62.8084 61.26C62.8084 61.212 62.8144 61.17 62.8264 61.134L64.5364 56.796C64.5964 56.652 64.6924 56.52 64.8244 56.4C64.9684 56.28 65.1484 56.22 65.3644 56.22H67.6684C67.7764 56.22 67.8664 56.262 67.9384 56.346C68.0224 56.418 68.0644 56.508 68.0644 56.616V56.652L67.3984 60.954ZM73.9906 64.14C73.9906 64.632 74.1526 65.01 74.4766 65.274C74.8126 65.538 75.2626 65.67 75.8266 65.67C76.3306 65.67 76.7026 65.586 76.9426 65.418C77.1826 65.25 77.3866 64.998 77.5546 64.662C77.7106 64.35 77.9206 64.194 78.1846 64.194H82.0726C82.1806 64.194 82.2706 64.236 82.3426 64.32C82.4266 64.392 82.4686 64.482 82.4686 64.59C82.4686 65.322 82.2226 66.042 81.7306 66.75C81.2386 67.446 80.4886 68.028 79.4806 68.496C78.4846 68.952 77.2666 69.18 75.8266 69.18C74.5426 69.18 73.3966 68.988 72.3886 68.604C71.3926 68.208 70.6006 67.608 70.0126 66.804C69.4246 65.988 69.1306 64.974 69.1306 63.762V61.638C69.1306 60.426 69.4246 59.418 70.0126 58.614C70.6006 57.798 71.3926 57.198 72.3886 56.814C73.3966 56.418 74.5426 56.22 75.8266 56.22C77.2666 56.22 78.4846 56.454 79.4806 56.922C80.4886 57.378 81.2386 57.96 81.7306 58.668C82.2226 59.364 82.4686 60.078 82.4686 60.81C82.4686 60.918 82.4266 61.014 82.3426 61.098C82.2706 61.17 82.1806 61.206 82.0726 61.206H78.1846C77.9206 61.206 77.7106 61.05 77.5546 60.738C77.3866 60.402 77.1826 60.15 76.9426 59.982C76.7026 59.814 76.3306 59.73 75.8266 59.73C75.2626 59.73 74.8126 59.862 74.4766 60.126C74.1526 60.39 73.9906 60.768 73.9906 61.26V64.14ZM94.4249 56.4C94.5569 56.4 94.6709 56.448 94.7669 56.544C94.8629 56.64 94.9109 56.754 94.9109 56.886V68.514C94.9109 68.646 94.8629 68.76 94.7669 68.856C94.6709 68.952 94.5569 69 94.4249 69H90.8969C90.7649 69 90.6509 68.952 90.5549 68.856C90.4589 68.76 90.4109 68.646 90.4109 68.514V60.288H86.8109V68.514C86.8109 68.646 86.7629 68.76 86.6669 68.856C86.5709 68.952 86.4569 69 86.3249 69H82.7969C82.6649 69 82.5509 68.958 82.4549 68.874C82.3589 68.778 82.3109 68.658 82.3109 68.514V56.886C82.3109 56.754 82.3589 56.64 82.4549 56.544C82.5509 56.448 82.6649 56.4 82.7969 56.4H94.4249ZM107.407 65.49C107.539 65.49 107.653 65.538 107.749 65.634C107.845 65.73 107.893 65.844 107.893 65.976V68.514C107.893 68.646 107.845 68.76 107.749 68.856C107.653 68.952 107.539 69 107.407 69H96.0311C95.8991 69 95.7851 68.952 95.6891 68.856C95.5931 68.76 95.5451 68.646 95.5451 68.514V56.886C95.5451 56.754 95.5931 56.64 95.6891 56.544C95.7851 56.448 95.8991 56.4 96.0311 56.4H107.227C107.359 56.4 107.473 56.448 107.569 56.544C107.665 56.64 107.713 56.754 107.713 56.886V59.424C107.713 59.556 107.665 59.67 107.569 59.766C107.473 59.862 107.359 59.91 107.227 59.91H100.225V61.044H106.237C106.369 61.044 106.483 61.092 106.579 61.188C106.675 61.284 106.723 61.398 106.723 61.53V63.87C106.723 64.002 106.675 64.116 106.579 64.212C106.483 64.308 106.369 64.356 106.237 64.356H100.225V65.49H107.407ZM115.439 56.886C115.439 56.754 115.487 56.64 115.583 56.544C115.679 56.448 115.793 56.4 115.925 56.4H119.453C119.585 56.4 119.699 56.448 119.795 56.544C119.891 56.64 119.939 56.754 119.939 56.886V65.13H120.623C120.755 65.13 120.869 65.178 120.965 65.274C121.061 65.37 121.109 65.484 121.109 65.616V70.746C121.109 70.878 121.061 70.992 120.965 71.088C120.869 71.184 120.755 71.232 120.623 71.232H117.725C117.593 71.232 117.479 71.184 117.383 71.088C117.287 70.992 117.239 70.878 117.239 70.746V69H109.265C109.133 69 109.019 68.952 108.923 68.856C108.827 68.76 108.779 68.646 108.779 68.514V56.886C108.779 56.742 108.827 56.628 108.923 56.544C109.019 56.448 109.133 56.4 109.265 56.4H112.973C113.105 56.4 113.219 56.448 113.315 56.544C113.411 56.64 113.459 56.754 113.459 56.886V65.13H115.439V56.886ZM133.714 56.4C133.846 56.4 133.96 56.448 134.056 56.544C134.152 56.64 134.2 56.754 134.2 56.886V59.784C134.2 59.916 134.152 60.03 134.056 60.126C133.96 60.222 133.846 60.27 133.714 60.27H129.844V68.514C129.844 68.646 129.796 68.76 129.7 68.856C129.604 68.952 129.49 69 129.358 69H125.65C125.518 69 125.404 68.952 125.308 68.856C125.212 68.76 125.164 68.646 125.164 68.514V60.27H121.294C121.162 60.27 121.048 60.222 120.952 60.126C120.856 60.03 120.808 59.916 120.808 59.784V56.886C120.808 56.754 120.856 56.64 120.952 56.544C121.048 56.448 121.162 56.4 121.294 56.4H133.714ZM142.304 56.4C143.432 56.4 144.416 56.592 145.256 56.976C146.096 57.36 146.738 57.882 147.182 58.542C147.626 59.202 147.848 59.94 147.848 60.756C147.848 62.1 147.428 63.156 146.588 63.924C145.748 64.68 144.32 65.058 142.304 65.058H139.928V68.514C139.928 68.646 139.88 68.76 139.784 68.856C139.688 68.952 139.574 69 139.442 69H135.572C135.44 69 135.326 68.952 135.23 68.856C135.134 68.76 135.086 68.646 135.086 68.514V56.886C135.086 56.754 135.134 56.64 135.23 56.544C135.326 56.448 135.44 56.4 135.572 56.4H142.304ZM142.232 61.728C142.52 61.728 142.748 61.644 142.916 61.476C143.084 61.296 143.168 61.062 143.168 60.774C143.168 60.474 143.084 60.228 142.916 60.036C142.748 59.844 142.52 59.748 142.232 59.748H139.946V61.728H142.232ZM150.84 68.388C150.684 68.796 150.414 69 150.03 69H146.628C146.52 69 146.424 68.964 146.34 68.892C146.268 68.808 146.232 68.712 146.232 68.604L146.25 68.496L150.174 56.994C150.222 56.838 150.312 56.7 150.444 56.58C150.576 56.46 150.756 56.4 150.984 56.4H155.988C156.216 56.4 156.396 56.46 156.528 56.58C156.66 56.7 156.75 56.838 156.798 56.994L160.722 68.496L160.74 68.604C160.74 68.712 160.698 68.808 160.614 68.892C160.542 68.964 160.452 69 160.344 69H156.942C156.558 69 156.288 68.796 156.132 68.388L155.682 67.128H151.29L150.84 68.388ZM153.486 59.874L152.208 63.618H154.764L153.486 59.874ZM172.39 56.4C172.522 56.4 172.636 56.448 172.732 56.544C172.828 56.64 172.876 56.754 172.876 56.886V68.514C172.876 68.646 172.828 68.76 172.732 68.856C172.636 68.952 172.522 69 172.39 69H168.682C168.55 69 168.436 68.952 168.34 68.856C168.244 68.76 168.196 68.646 168.196 68.514V64.68H164.596V68.514C164.596 68.646 164.548 68.76 164.452 68.856C164.356 68.952 164.242 69 164.11 69H160.402C160.27 69 160.156 68.958 160.06 68.874C159.964 68.778 159.916 68.658 159.916 68.514V56.886C159.916 56.754 159.964 56.64 160.06 56.544C160.156 56.448 160.27 56.4 160.402 56.4H164.11C164.242 56.4 164.356 56.448 164.452 56.544C164.548 56.64 164.596 56.754 164.596 56.886V60.576H168.196V56.886C168.196 56.754 168.244 56.64 168.34 56.544C168.436 56.448 168.55 56.4 168.682 56.4H172.39ZM177.704 64.14C177.704 64.632 177.866 65.01 178.19 65.274C178.526 65.538 178.976 65.67 179.54 65.67C180.044 65.67 180.416 65.586 180.656 65.418C180.896 65.25 181.1 64.998 181.268 64.662C181.424 64.35 181.634 64.194 181.898 64.194H185.786C185.894 64.194 185.984 64.236 186.056 64.32C186.14 64.392 186.182 64.482 186.182 64.59C186.182 65.322 185.936 66.042 185.444 66.75C184.952 67.446 184.202 68.028 183.194 68.496C182.198 68.952 180.98 69.18 179.54 69.18C178.256 69.18 177.11 68.988 176.102 68.604C175.106 68.208 174.314 67.608 173.726 66.804C173.138 65.988 172.844 64.974 172.844 63.762V61.638C172.844 60.426 173.138 59.418 173.726 58.614C174.314 57.798 175.106 57.198 176.102 56.814C177.11 56.418 178.256 56.22 179.54 56.22C180.98 56.22 182.198 56.454 183.194 56.922C184.202 57.378 184.952 57.96 185.444 58.668C185.936 59.364 186.182 60.078 186.182 60.81C186.182 60.918 186.14 61.014 186.056 61.098C185.984 61.17 185.894 61.206 185.786 61.206H181.898C181.634 61.206 181.424 61.05 181.268 60.738C181.1 60.402 180.896 60.15 180.656 59.982C180.416 59.814 180.044 59.73 179.54 59.73C178.976 59.73 178.526 59.862 178.19 60.126C177.866 60.39 177.704 60.768 177.704 61.26V64.14ZM202.697 68.388C202.541 68.796 202.271 69 201.887 69H198.485C198.377 69 198.281 68.964 198.197 68.892C198.125 68.808 198.089 68.712 198.089 68.604L198.107 68.496L202.031 56.994C202.079 56.838 202.169 56.7 202.301 56.58C202.433 56.46 202.613 56.4 202.841 56.4H207.845C208.073 56.4 208.253 56.46 208.385 56.58C208.517 56.7 208.607 56.838 208.655 56.994L212.579 68.496L212.597 68.604C212.597 68.712 212.555 68.808 212.471 68.892C212.399 68.964 212.309 69 212.201 69H208.799C208.415 69 208.145 68.796 207.989 68.388L207.539 67.128H203.147L202.697 68.388ZM205.343 59.874L204.065 63.618H206.621L205.343 59.874ZM215.661 68.388C215.505 68.796 215.235 69 214.851 69H211.449C211.341 69 211.245 68.964 211.161 68.892C211.089 68.808 211.053 68.712 211.053 68.604L211.071 68.496L214.995 56.994C215.043 56.838 215.133 56.7 215.265 56.58C215.397 56.46 215.577 56.4 215.805 56.4H220.809C221.037 56.4 221.217 56.46 221.349 56.58C221.481 56.7 221.571 56.838 221.619 56.994L225.543 68.496L225.561 68.604C225.561 68.712 225.519 68.808 225.435 68.892C225.363 68.964 225.273 69 225.165 69H221.763C221.379 69 221.109 68.796 220.953 68.388L220.503 67.128H216.111L215.661 68.388ZM218.307 59.874L217.029 63.618H219.585L218.307 59.874ZM233.017 61.134C234.625 61.134 235.867 61.482 236.743 62.178C237.631 62.862 238.075 63.816 238.075 65.04C238.075 66.264 237.631 67.23 236.743 67.938C235.855 68.646 234.607 69 232.999 69H225.583C225.451 69 225.337 68.952 225.241 68.856C225.145 68.76 225.097 68.646 225.097 68.514V56.886C225.097 56.754 225.145 56.64 225.241 56.544C225.337 56.448 225.451 56.4 225.583 56.4H236.167C236.299 56.4 236.413 56.448 236.509 56.544C236.605 56.64 236.653 56.754 236.653 56.886V59.406C236.653 59.538 236.605 59.652 236.509 59.748C236.413 59.844 236.299 59.892 236.167 59.892H229.777V61.134H233.017ZM232.387 65.904C232.663 65.904 232.867 65.808 232.999 65.616C233.143 65.424 233.215 65.214 233.215 64.986C233.215 64.758 233.137 64.56 232.981 64.392C232.837 64.224 232.639 64.14 232.387 64.14H229.777V65.904H232.387ZM239.465 56.922C239.489 56.742 239.579 56.58 239.735 56.436C239.903 56.292 240.101 56.22 240.329 56.22H243.659C243.767 56.22 243.857 56.262 243.929 56.346C244.013 56.418 244.055 56.508 244.055 56.616C244.055 56.664 244.049 56.706 244.037 56.742L242.327 61.08C242.267 61.224 242.165 61.356 242.021 61.476C241.889 61.596 241.715 61.656 241.499 61.656H239.195C239.087 61.656 238.991 61.62 238.907 61.548C238.835 61.464 238.799 61.368 238.799 61.26V61.224L239.465 56.922ZM244.955 56.922C244.979 56.742 245.069 56.58 245.225 56.436C245.393 56.292 245.591 56.22 245.819 56.22H249.149C249.257 56.22 249.347 56.262 249.419 56.346C249.503 56.418 249.545 56.508 249.545 56.616C249.545 56.664 249.539 56.706 249.527 56.742L247.817 61.08C247.757 61.224 247.655 61.356 247.511 61.476C247.379 61.596 247.205 61.656 246.989 61.656H244.685C244.577 61.656 244.481 61.62 244.397 61.548C244.325 61.464 244.289 61.368 244.289 61.26V61.224L244.955 56.922Z" fill="url(#paint0_linear_1_50)" shape-rendering="crispEdges"/>
</g>
<path d="M119.078 0L127.111 22.4918H79.3606L56.8688 0H119.078Z" fill="url(#paint1_linear_1_50)"/>
<path d="M138 4.81967L159.689 20.082L170.934 23.2951L174.951 36.1475L172.541 40.6124H163.705C163.705 40.6124 163.705 28.918 152.459 28.918C141.213 28.918 141.213 40.6124 141.213 40.6124H113.902C113.902 40.6124 113.902 28.918 102.656 28.918C91.4099 28.918 91.4099 40.6124 91.4099 40.6124H87.3935L75.3443 26.5082H132.826L125.148 4.81967H138Z" fill="url(#paint2_linear_1_50)"/>
<path d="M102.656 32.9344C99.1066 32.9344 96.2295 35.8115 96.2295 39.3606C96.2295 42.9097 99.1066 45.7869 102.656 45.7869C106.205 45.7869 109.082 42.9097 109.082 39.3606C109.082 35.8115 106.205 32.9344 102.656 32.9344Z" fill="#464646"/>
<path d="M102.656 29.7213C97.332 29.7213 93.0164 34.037 93.0164 39.3606C93.0164 44.6843 97.332 49 102.656 49C107.979 49 112.295 44.6843 112.295 39.3606C112.295 34.037 107.979 29.7213 102.656 29.7213Z" fill="#464646"/>
<path d="M102.656 32.9344C99.1066 32.9344 96.2295 35.8115 96.2295 39.3606C96.2295 42.9097 99.1066 45.7869 102.656 45.7869C106.205 45.7869 109.082 42.9097 109.082 39.3606C109.082 35.8115 106.205 32.9344 102.656 32.9344Z" stroke="black"/>
<path d="M102.656 29.7213C97.332 29.7213 93.0164 34.037 93.0164 39.3606C93.0164 44.6843 97.332 49 102.656 49C107.979 49 112.295 44.6843 112.295 39.3606C112.295 34.037 107.979 29.7213 102.656 29.7213Z" stroke="black"/>
<path d="M102.656 32.9344C99.1066 32.9344 96.2295 35.8115 96.2295 39.3606C96.2295 42.9098 99.1066 45.7869 102.656 45.7869C106.205 45.7869 109.082 42.9098 109.082 39.3606C109.082 35.8115 106.205 32.9344 102.656 32.9344Z" fill="white"/>
<path d="M152.459 32.9344C148.91 32.9344 146.033 35.8115 146.033 39.3606C146.033 42.9097 148.91 45.7869 152.459 45.7869C156.008 45.7869 158.885 42.9097 158.885 39.3606C158.885 35.8115 156.008 32.9344 152.459 32.9344Z" fill="#464646"/>
<path d="M152.459 29.7213C147.135 29.7213 142.82 34.037 142.82 39.3606C142.82 44.6843 147.135 49 152.459 49C157.783 49 162.098 44.6843 162.098 39.3606C162.098 34.037 157.783 29.7213 152.459 29.7213Z" fill="#464646"/>
<path d="M152.459 32.9344C148.91 32.9344 146.033 35.8115 146.033 39.3606C146.033 42.9097 148.91 45.7869 152.459 45.7869C156.008 45.7869 158.885 42.9097 158.885 39.3606C158.885 35.8115 156.008 32.9344 152.459 32.9344Z" stroke="black"/>
<path d="M152.459 29.7213C147.135 29.7213 142.82 34.037 142.82 39.3606C142.82 44.6843 147.135 49 152.459 49C157.783 49 162.098 44.6843 162.098 39.3606C162.098 34.037 157.783 29.7213 152.459 29.7213Z" stroke="black"/>
<path d="M152.459 32.9344C148.91 32.9344 146.033 35.8115 146.033 39.3606C146.033 42.9098 148.91 45.7869 152.459 45.7869C156.008 45.7869 158.885 42.9098 158.885 39.3606C158.885 35.8115 156.008 32.9344 152.459 32.9344Z" fill="white"/>
<path d="M137.877 7.48611H128.472L133.236 19.87H154.333L137.877 7.48611Z" fill="white"/>
<path d="M40 5.62296H93.0164" stroke="#B83D3D" stroke-width="2"/>
<path d="M51.2459 16.8688H104.262" stroke="#B83D3D" stroke-width="2"/>
<path d="M60.8853 29.7213H113.902" stroke="#B83D3D" stroke-width="2"/>
<defs>
<filter id="filter0_d_1_50" x="0.129517" y="56.22" width="253.416" height="23.012" filterUnits="userSpaceOnUse" color-interpolation-filters="sRGB">
<feFlood flood-opacity="0" result="BackgroundImageFix"/>
<feColorMatrix in="SourceAlpha" type="matrix" values="0 0 0 0 0 0 0 0 0 0 0 0 0 0 0 0 0 0 127 0" result="hardAlpha"/>
<feOffset dy="4"/>
<feGaussianBlur stdDeviation="2"/>
<feComposite in2="hardAlpha" operator="out"/>
<feColorMatrix type="matrix" values="0 0 0 0 0 0 0 0 0 0 0 0 0 0 0 0 0 0 0.25 0"/>
<feBlend mode="normal" in2="BackgroundImageFix" result="effect1_dropShadow_1_50"/>
<feBlend mode="normal" in="SourceGraphic" in2="effect1_dropShadow_1_50" result="shape"/>
</filter>
<linearGradient id="paint0_linear_1_50" x1="127.5" y1="52" x2="127.5" y2="74" gradientUnits="userSpaceOnUse">
<stop offset="0.375" stop-color="#4C7295"/>
<stop offset="0.630208" stop-color="#5A486C" stop-opacity="0.99"/>
<stop offset="0.869792" stop-color="#B83D3D" stop-opacity="0.99"/>
</linearGradient>
<linearGradient id="paint1_linear_1_50" x1="91.0082" y1="0" x2="91.0082" y2="22.4918" gradientUnits="userSpaceOnUse">
<stop offset="1" stop-color="#4C7295"/>
</linearGradient>
<linearGradient id="paint2_linear_1_50" x1="125.148" y1="4.81967" x2="125.148" y2="40.6124" gradientUnits="userSpaceOnUse">
<stop offset="1" stop-color="#5A486C"/>
</linearGradient>
</defs>
</svg>
